<?xml version="1.0" encoding="UTF-8" standalone="no"?>
<!-- Created with Inkscape (http://www.inkscape.org/) -->

<svg
   width="456"
   height="456"
   viewBox="0 0 120.65 120.65001"
   version="1.1"
   id="svg44"
   inkscape:version="1.1.2 (b8e25be833, 2022-02-05)"
   sodipodi:docname="appiconfg_monkey.svg"
   xmlns:inkscape="http://www.inkscape.org/namespaces/inkscape"
   xmlns:sodipodi="http://sodipodi.sourceforge.net/DTD/sodipodi-0.dtd"
   xmlns="http://www.w3.org/2000/svg"
   xmlns:svg="http://www.w3.org/2000/svg">
  <sodipodi:namedview
     id="namedview46"
     pagecolor="#ffffff"
     bordercolor="#111111"
     borderopacity="1"
     inkscape:pageshadow="0"
     inkscape:pageopacity="0"
     inkscape:pagecheckerboard="1"
     inkscape:document-units="mm"
     showgrid="false"
     units="px"
     inkscape:zoom="0.49917265"
     inkscape:cx="301.49889"
     inkscape:cy="467.77402"
     inkscape:window-width="1271"
     inkscape:window-height="1018"
     inkscape:window-x="633"
     inkscape:window-y="0"
     inkscape:window-maximized="0"
     inkscape:current-layer="layer1"
     inkscape:snap-grids="false"
     inkscape:snap-to-guides="false" />
  <defs
     id="defs41" />
  <g
     inkscape:label="Capa 1"
     inkscape:groupmode="layer"
     id="layer1"
     style="display:none"
     transform="translate(-83.621688,-97.798264)">
    <g
       style="clip-rule:evenodd;fill-rule:evenodd;stroke-linejoin:round;stroke-miterlimit:2"
       id="g66"
       transform="matrix(0.26458333,0,0,0.26458333,83.186444,94.2549)">
      <path
         d="m 105.50037,281.60863 c -2.70293,0 -5.00091,-0.90042 -6.893127,-2.70209 -1.892214,-1.84778 -2.837901,-4.04181 -2.837901,-6.58209 0,-2.58722 0.945687,-4.80389 2.837901,-6.65167 1.892217,-1.84778 4.190197,-2.77167 6.893127,-2.77167 2.74819,0 5.06798,0.92389 6.96019,2.77167 1.93749,1.84778 2.90581,4.06445 2.90581,6.65167 0,2.54028 -0.96832,4.73431 -2.90581,6.58209 -1.89221,1.80167 -4.212,2.70209 -6.96019,2.70209 z"
         style="fill:#ffffff;fill-rule:nonzero;stroke-width:0.838376"
         id="path48" />
      <path
         d="M 213.56111,280.08446 H 195.99044 L 149.69953,207.0544 c -1.17121,-1.84778 -2.14037,-3.76515 -2.90581,-5.75126 h -0.40578 c 0.36051,2.12528 0.54076,6.67515 0.54076,13.6496 v 65.13172 h -15.54349 v -99.36009 h 18.71925 l 44.7374,71.29798 c 1.89222,2.95695 3.1087,4.98917 3.64945,6.09751 h 0.26996 c -0.45021,-2.6325 -0.67573,-7.09015 -0.67573,-13.37293 v -64.02256 h 15.47557 z"
         style="fill:#ffffff;fill-rule:nonzero;stroke-width:0.838376"
         id="path50" />
      <path
         d="m 289.25134,280.08446 h -54.40052 v -99.36009 h 52.23835 v 13.99669 h -36.15411 v 28.13085 h 33.31621 v 13.9271 h -33.31621 v 29.37835 h 38.31628 z"
         style="fill:#ffffff;fill-rule:nonzero;stroke-width:0.838376"
         id="path52" />
      <path
         d="M 366.56466,194.72106 H 338.7222 v 85.3634 h -16.08423 v -85.3634 h -27.77455 v -13.99669 h 71.70124 z"
         style="fill:#ffffff;fill-rule:nonzero;stroke-width:0.838376"
         id="path54" />
    </g>
  </g>
  <g
     inkscape:groupmode="layer"
     id="layer2"
     inkscape:label="Capa 2"
     style="display:inline">
    <g
       id="g462"
       transform="translate(-4.3030394,-3.5546852)">
      <path
         style="fill:#333333;fill-opacity:1;stroke-width:0.999999"
         d="m 61.55248,100.10511 c -4.71784,-0.831132 -8.457378,-2.710784 -12.044599,-6.054132 -4.162436,-3.879459 -5.993752,-7.617011 -6.023703,-12.293843 -0.0085,-1.326858 -0.02484,-1.358291 -0.64619,-1.242978 -1.305154,0.24222 -2.873185,-2.132104 -4.330073,-6.556629 -0.92774,-2.81752 -0.934944,-2.903426 -0.235101,-2.803823 0.40753,0.058 0.915535,0.749507 2.017362,2.746075 0.809968,1.467705 1.622134,2.81775 1.804814,3.0001 0.513726,0.512801 0.87025,-0.366912 1.046145,-2.581341 l 0.150125,-1.89001 -1.146858,-0.841247 c -1.334567,-0.978935 -1.373486,-1.050428 -1.558725,-2.863302 -0.238965,-2.338682 -0.29913,-2.463323 -1.429539,-2.961525 -1.637919,-0.721875 -2.302338,-0.627129 -3.049845,0.434909 -0.803991,1.142289 -1.626667,3.675278 -1.626667,5.008448 0,2.7654 1.435573,5.688922 4.045265,8.238119 0.93614,0.914438 1.702073,1.815075 1.702073,2.001415 0,0.53013 -2.150761,0.42823 -3.405232,-0.161338 -2.541454,-1.194411 -5.488404,-5.337365 -6.115336,-8.597207 -0.561917,-2.921792 0.191906,-6.851232 1.936613,-10.094947 1.231423,-2.28943 2.008544,-2.938914 3.677217,-3.073257 1.500394,-0.120795 2.588301,0.151358 4.705164,1.177051 l 1.423137,0.689559 0.140561,-1.141884 c 0.455038,-3.696633 1.133888,-6.666588 2.290745,-10.021969 0.106658,-0.309353 -0.164693,-0.447128 -1.32227,-0.671369 -1.740093,-0.337082 -3.416705,-1.204086 -3.541096,-1.831157 -0.07217,-0.363806 0.02063,-0.424637 0.472694,-0.30987 0.485738,0.123319 2.932126,-0.182553 3.14973,-0.393813 0.04213,-0.0409 -0.580219,-0.730092 -1.383006,-1.531527 -1.874015,-1.870859 -2.568145,-3.548025 -2.568145,-6.205192 0,-2.067535 0.172113,-2.862008 0.618535,-2.855166 0.162533,0.0025 1.745175,0.712084 3.516981,1.576873 1.771806,0.864789 3.333796,1.572343 3.47109,1.572343 0.137294,0 -0.244112,-0.424436 -0.847565,-0.943192 -2.180032,-1.87405 -3.960488,-5.703751 -3.9601,-8.518044 2.3e-4,-1.664756 0.654532,-3.529643 1.326178,-3.77986 0.201359,-0.07502 1.21885,0.468286 2.321941,1.239828 4.472822,3.128453 8.170339,4.380443 13.957964,4.726207 4.043035,0.241538 6.571529,0.765091 9.461955,1.959202 2.37583,0.981517 5.496592,2.813836 6.810218,3.998536 l 1.094783,0.987338 v 2.090894 2.090894 l 1.18695,0.147388 c 1.441273,0.178966 4.931759,0.956607 5.859212,1.305362 0.943773,0.354896 1.353633,1.084481 1.798959,3.202308 0.38945,1.852103 1.213313,7.996171 1.531616,11.422235 l 0.172407,1.85571 1.909601,-0.88064 c 1.448474,-0.667982 2.30965,-0.902628 3.566266,-0.971703 1.615542,-0.0888 1.682258,-0.06862 2.687558,0.813121 2.847786,2.497759 4.593351,9.461219 3.378355,13.47704 -0.930692,3.076144 -3.617195,6.500104 -5.883403,7.498425 -1.179349,0.519533 -3.08238,0.650317 -3.349818,0.230214 -0.09118,-0.143224 0.576773,-0.97074 1.484332,-1.838927 1.804522,-1.726232 3.083482,-3.643736 3.771316,-5.654212 1.090438,-3.187243 -0.508564,-8.74297 -2.516327,-8.74297 -0.926149,0 -2.234458,0.60254 -2.695327,1.241331 -0.273311,0.378828 -0.407483,1.074226 -0.407483,2.111951 0,1.426034 -0.06358,1.607353 -0.812124,2.316135 -0.446668,0.422939 -1.049349,0.930571 -1.33929,1.128071 -0.493786,0.336354 -0.515521,0.491872 -0.343289,2.456374 0.30291,3.454998 0.489511,3.410514 2.76506,-0.659171 1.117972,-1.999431 1.679564,-2.772392 2.014269,-2.772392 0.255255,0 0.4641,0.162447 0.4641,0.360992 0,0.767476 -1.594231,5.177579 -2.442421,6.756433 -0.969901,1.805418 -1.728499,2.461059 -2.649718,2.290092 -0.586615,-0.108867 -0.594664,-0.08255 -0.714734,2.337115 -0.137019,2.76124 -0.640905,4.453874 -1.952813,6.559805 C 80.027523,97.304869 70.46542,101.67528 61.55248,100.10511 Z m 7.910944,-3.048914 c 5.28927,-1.228362 10.4775,-4.930153 12.676778,-9.044859 0.566703,-1.06026 0.669033,-1.553797 0.662404,-3.194746 -0.0084,-2.081518 -0.68043,-5.474276 -1.252088,-6.32129 -0.333016,-0.493425 -0.494563,-0.512542 -3.409743,-0.403517 -3.207642,0.119964 -6.955576,-0.233653 -8.31317,-0.784346 -0.970008,-0.393476 -1.203967,-0.98047 -1.795254,-4.504259 -0.493453,-2.940746 -0.491487,-2.9388 -2.910666,-2.882047 -2.154982,0.05056 -2.23559,0.126552 -2.557701,2.411356 -0.386104,2.738734 -0.810982,4.253922 -1.310061,4.671907 -0.552636,0.462844 -2.224269,0.828302 -4.7331,1.03477 l -2.072635,0.17057 -1.246887,0.944225 c -2.373406,1.797301 -3.203847,3.715535 -2.924446,7.016589 0.133989,1.583049 0.761905,3.348751 2.909815,5.601025 4.696704,4.924913 10.171596,6.702463 16.276754,5.284622 z m -8.496065,-5.300815 c 0.206154,-0.111667 1.499305,-0.275303 2.873669,-0.363634 5.079675,-0.326476 8.265891,-1.051912 9.382844,-2.136284 0.728315,-0.707075 2.05674,-3.155429 2.364852,-4.358551 0.139803,-0.545899 0.07723,-0.660067 -0.398858,-0.727788 -0.986548,-0.140332 -0.790676,-0.614075 0.371346,-0.89814 1.201541,-0.293728 3.8531,-0.368299 4.501855,-0.126609 0.757122,0.282059 0.403828,0.814052 -0.723647,1.089673 -1.049259,0.256499 -1.191349,0.395448 -2.282583,2.232146 -0.640021,1.077241 -1.671656,2.485857 -2.292523,3.130254 -1.283074,1.331698 -2.330836,1.716167 -5.794104,2.126088 -2.536721,0.300256 -8.542032,0.324901 -8.002851,0.03284 z M 63.63131,80.994373 c -0.527653,-0.266123 -1.258565,-0.46011 -1.624248,-0.431086 -2.535963,0.201282 -3.538546,-0.02541 -3.538546,-0.800085 0,-0.305868 0.240608,-0.806855 0.534685,-1.113302 0.416459,-0.433977 0.714769,-0.528805 1.349127,-0.428865 0.969401,0.152723 4.019639,1.969327 4.368122,2.601483 0.47599,0.863452 0.328326,0.886753 -1.08914,0.171855 z m 2.833502,0.304579 c 0,-0.672311 3.28803,-2.869147 4.604768,-3.07659 0.643799,-0.101427 0.939205,-0.0084 1.357539,0.427538 0.294076,0.306447 0.534684,0.798626 0.534684,1.093726 0,0.440093 -0.214888,0.586597 -1.195346,0.814945 -0.760803,0.17719 -1.418061,0.19841 -1.807993,0.05837 -0.630325,-0.226374 -2.596595,0.254191 -2.883397,0.704714 -0.188275,0.295751 -0.610255,0.28005 -0.610255,-0.02271 z M 58.782061,76.31993 c 1.097841,-0.525428 1.273402,-0.985802 1.710198,-4.484669 0.388735,-3.113867 0.20357,-4.053849 -0.885583,-4.495652 -2.170849,-0.880584 -9.705859,-1.058421 -12.382952,-0.292257 l -1.124479,0.321815 -0.07577,1.557914 c -0.09312,1.914592 0.535744,4.784615 1.28522,5.865534 0.626135,0.903031 1.228706,1.237464 3.187881,1.769305 1.933527,0.524877 6.991864,0.377141 8.285485,-0.24199 z m 22.476317,-0.09845 c 1.022669,-0.379218 1.567629,-0.752746 1.931006,-1.323552 1.023711,-1.608085 1.829313,-6.439935 1.210162,-7.258325 -0.468321,-0.619024 -1.849428,-0.884618 -5.44052,-1.046243 -3.655217,-0.164511 -7.722966,0.319691 -8.51238,1.013265 -0.407352,0.357894 -0.482772,0.752985 -0.479116,2.509871 0.0049,2.348609 0.559908,5.28413 1.097812,5.806341 1.162084,1.12819 7.458443,1.312664 10.193036,0.298643 z M 67.714341,65.599409 c -6e-5,-0.295518 0.212809,-0.64793 0.473039,-0.783138 0.8515,-0.442417 5.014807,-0.755611 10.416885,-0.783633 l 5.303809,-0.02751 0.168934,-1.312674 c 0.189265,-1.470637 -0.01217,-3.031028 -0.514284,-3.984009 -0.971633,-1.844063 -5.923027,-4.774429 -9.601384,-5.682353 -3.208716,-0.792003 -5.078547,-0.04958 -7.479475,2.969763 l -1.219863,1.534064 -0.897714,-1.187264 c -1.070102,-1.41525 -2.560154,-2.760565 -3.680563,-3.323053 -2.828123,-1.419823 -11.97271,2.412118 -13.728104,5.752614 -0.409914,0.780062 -0.487675,1.336416 -0.428678,3.067029 l 0.07207,2.114111 5.122628,0.04964 c 5.361059,0.05195 10.153302,0.423351 10.652519,0.82558 0.161345,0.13 0.355842,0.477513 0.432214,0.772253 0.131097,0.505933 0.272159,0.535889 2.523469,0.535889 2.295145,0 2.384603,-0.02016 2.384498,-0.537306 z"
         id="path464"
         sodipodi:nodetypes="ssssssssscsssssssssssscsssssssscssssssssscccsssscssssssssssssssssssssssssssssssssscssssssssssssssssssssssssssssssssssssscssssssssssssssscsssscsssscssssss" />
    </g>
  </g>
</svg>
